<svg xmlns="http://www.w3.org/2000/svg" width="1280" height="720" viewBox="0 0 1280 720">
  <rect width="1280" height="720" fill="#0f0f13"/>
  <rect x="60" y="40" width="200" height="48" rx="10" fill="#1a1a24"/>
  <rect x="60" y="55" width="140" height="18" rx="4" fill="#6c5ce7" opacity="0.6"/>
  <rect x="1100" y="50" width="120" height="28" rx="14" fill="#24243a"/>
  <text x="1160" y="69" text-anchor="middle" fill="#9a9ab0" font-size="12" font-family="sans-serif">RGPD Art. 5</text>
  <rect x="60" y="110" width="1160" height="140" rx="16" fill="#1a1a24"/>
  <rect x="80" y="130" width="160" height="100" rx="8" fill="#24243a" stroke="#6c5ce7" stroke-width="1" stroke-dasharray="6,4"/>
  <text x="160" y="178" text-anchor="middle" fill="#9a9ab0" font-size="14" font-family="sans-serif">Vista previa</text>
  <rect x="260" y="130" width="920" height="100" rx="8" fill="#24243a"/>
  <rect x="280" y="148" width="180" height="16" rx="3" fill="#6c5ce7" opacity="0.3"/>
  <rect x="280" y="172" width="300" height="12" rx="3" fill="#9a9ab0" opacity="0.2"/>
  <rect x="280" y="192" width="250" height="12" rx="3" fill="#9a9ab0" opacity="0.2"/>
  <rect x="280" y="212" width="200" height="12" rx="3" fill="#e74c3c" opacity="0.3"/>
  <rect x="60" y="270" width="1160" height="200" rx="16" fill="#1a1a24"/>
  <rect x="80" y="290" width="350" height="160" rx="10" fill="#24243a"/>
  <rect x="95" y="310" width="14" height="14" rx="3" fill="#2ed573"/>
  <rect x="118" y="312" width="120" height="10" rx="2" fill="#9a9ab0" opacity="0.3"/>
  <rect x="95" y="340" width="14" height="14" rx="3" fill="#2ed573"/>
  <rect x="118" y="342" width="140" height="10" rx="2" fill="#9a9ab0" opacity="0.3"/>
  <rect x="95" y="370" width="14" height="14" rx="3" fill="#e74c3c"/>
  <rect x="118" y="372" width="100" height="10" rx="2" fill="#e74c3c" opacity="0.5"/>
  <rect x="95" y="400" width="14" height="14" rx="3" fill="#e74c3c"/>
  <rect x="118" y="402" width="150" height="10" rx="2" fill="#e74c3c" opacity="0.5"/>
  <rect x="460" y="290" width="250" height="40" rx="20" fill="#6c5ce7"/>
  <text x="585" y="315" text-anchor="middle" fill="#fff" font-size="14" font-family="sans-serif" font-weight="bold">Procesar documento</text>
  <rect x="460" y="345" width="200" height="40" rx="20" fill="#24243a" stroke="#9a9ab0" stroke-width="1" opacity="0.5"/>
  <text x="560" y="370" text-anchor="middle" fill="#9a9ab0" font-size="13" font-family="sans-serif">Modo: Marca de agua</text>
  <rect x="60" y="490" width="1160" height="160" rx="16" fill="#1a1a24"/>
  <rect x="80" y="515" width="1120" height="120" rx="8" fill="#24243a"/>
  <rect x="100" y="535" width="1080" height="80" rx="6" fill="#0f0f13"/>
  <rect x="120" y="555" width="200" height="14" rx="3" fill="#2ed573" opacity="0.3"/>
  <rect x="340" y="555" width="200" height="14" rx="3" fill="#e74c3c" opacity="0.3"/>
  <rect x="560" y="555" width="200" height="14" rx="3" fill="#6c5ce7" opacity="0.3"/>
  <rect x="120" y="585" width="400" height="12" rx="3" fill="#9a9ab0" opacity="0.15"/>
</svg>
